<?xml version="1.0" standalone="no"?>
<!DOCTYPE svg PUBLIC "-//W3C//DTD SVG 20010904//EN"
 "http://www.w3.org/TR/2001/REC-SVG-20010904/DTD/svg10.dtd">
<svg version="1.0" xmlns="http://www.w3.org/2000/svg"
 width="500.000000pt" height="286.000000pt" viewBox="0 0 500.000000 286.000000"
 preserveAspectRatio="xMidYMid meet">

<g transform="translate(0.000000,286.000000) scale(0.100000,-0.100000)"
fill="#000000" stroke="none">
<path d="M1473 2548 c-15 -56 -65 -113 -166 -189 l-81 -61 -62 6 c-63 6 -94 1
-94 -16 0 -5 11 -24 24 -41 41 -54 72 -127 116 -267 74 -237 100 -276 138
-210 19 33 39 39 367 104 l170 34 22 -20 c22 -21 23 -21 45 -2 11 10 61 101
109 201 49 100 102 197 119 216 16 19 30 41 30 50 0 20 -56 61 -132 97 -75 36
-79 36 -135 9 -41 -20 -253 -69 -300 -69 -12 0 -25 -5 -28 -10 -20 -32 78 -67
136 -49 19 5 78 12 132 16 l97 6 0 -29 c0 -16 -3 -46 -6 -66 l-7 -38 -60 0
c-102 0 -247 -44 -247 -74 0 -29 116 -35 219 -11 35 9 66 13 69 11 2 -3 -6
-40 -19 -82 -27 -88 -22 -85 -162 -103 -48 -6 -152 -27 -231 -46 -198 -48
-191 -49 -205 28 -7 34 -15 72 -17 83 -5 19 0 22 45 28 75 10 181 45 188 62 8
21 -14 43 -51 49 -22 4 -47 -1 -87 -19 -30 -14 -69 -28 -85 -32 -30 -6 -30 -5
-47 67 -10 39 -16 74 -14 76 12 11 178 102 275 150 63 31 116 63 119 71 10 23
-9 43 -73 79 -81 45 -97 44 -111 -9z"/>
<path d="M4023 2245 c-29 -13 -53 -28 -53 -33 0 -5 -18 -30 -41 -56 -22 -25
-37 -46 -32 -46 35 0 193 124 193 151 0 13 -10 11 -67 -16z"/>
<path d="M3620 2107 c-74 -39 -91 -61 -40 -51 53 11 60 -4 60 -140 0 -310 41
-411 169 -424 92 -9 198 52 280 160 58 78 94 220 103 403 l3 60 -37 3 c-22 2
-52 -5 -77 -17 -50 -26 -60 -41 -27 -41 39 0 44 -21 29 -143 -17 -140 -48
-273 -73 -314 -36 -60 -148 -65 -209 -10 -45 41 -52 78 -62 301 -4 116 -8 214
-9 219 0 12 -83 8 -110 -6z"/>
<path d="M2462 2091 c-120 -35 -202 -106 -202 -177 0 -76 37 -107 185 -155
150 -48 200 -111 144 -182 -47 -60 -220 -59 -265 1 -9 12 -17 11 -52 -13 -47
-31 -57 -49 -37 -69 45 -44 171 -46 268 -3 152 68 224 166 185 252 -15 34 -58
59 -148 86 -94 28 -166 63 -180 88 -15 29 -12 77 7 96 24 24 58 35 113 35 61
0 98 -14 108 -40 7 -20 10 -19 55 20 26 23 47 48 47 55 0 30 -131 33 -228 6z"/>
<path d="M2855 2097 c-16 -7 -41 -19 -55 -27 l-25 -15 40 -5 40 -5 -3 -271
c-3 -248 -2 -272 14 -288 13 -14 27 -17 58 -12 42 7 109 35 139 57 15 12 10
14 -40 14 l-58 0 -3 108 -3 107 146 2 c80 1 154 2 166 2 21 1 21 -3 20 -129
-1 -71 3 -136 8 -144 15 -23 81 -14 151 21 l64 33 -34 3 c-19 1 -46 5 -59 8
l-24 5 5 124 c5 116 6 126 29 144 24 20 24 20 2 14 -22 -5 -22 -4 -25 128 l-3
134 -43 3 c-29 2 -59 -5 -97 -22 -58 -26 -73 -43 -29 -32 14 4 34 4 45 1 17
-6 19 -17 19 -116 l0 -109 -169 0 -169 0 2 138 1 137 -40 2 c-22 1 -53 -3 -70
-10z"/>
<path d="M1874 1856 c-3 -7 2 -38 10 -67 9 -30 22 -117 31 -194 27 -245 43
-312 102 -428 63 -121 188 -216 371 -281 78 -28 150 -34 170 -14 18 18 15 42
-18 138 -17 50 -34 126 -39 180 -15 136 -29 136 -56 0 -9 -47 -24 -100 -32
-118 -19 -40 -30 -39 -139 12 -116 55 -170 123 -223 282 -39 116 -60 316 -42
389 13 54 8 65 -42 88 -53 24 -87 29 -93 13z"/>
<path d="M1500 1756 c0 -7 7 -30 15 -50 22 -53 37 -311 25 -427 -9 -93 -33
-184 -51 -195 -30 -18 14 -154 50 -154 11 0 41 23 68 51 26 28 101 96 166 152
161 139 157 150 -22 62 l-111 -54 0 150 0 151 36 -32 c65 -57 136 -68 156 -25
26 58 -27 95 -139 95 l-53 0 0 105 c0 58 2 105 4 105 2 0 34 -11 70 -25 37
-14 80 -25 96 -25 56 0 74 71 23 91 -31 11 -106 11 -158 -1 -29 -7 -44 -6 -55
4 -18 16 -76 36 -101 36 -11 0 -19 -6 -19 -14z"/>
<path d="M1094 1677 c-3 -9 2 -47 11 -84 25 -99 26 -290 2 -368 -17 -52 -31
-71 -113 -154 -52 -52 -94 -97 -94 -101 0 -17 48 -76 73 -90 31 -17 26 -19
143 63 38 27 131 89 207 138 184 120 182 139 -10 73 -57 -20 -106 -34 -107
-32 -2 1 6 112 17 245 19 229 20 243 3 268 -27 41 -121 71 -132 42z"/>
<path d="M1277 1653 c-26 -7 -17 -34 18 -54 48 -28 144 -50 166 -38 27 14 24
54 -7 78 -21 17 -40 21 -93 20 -36 -1 -74 -3 -84 -6z"/>
<path d="M1274 1420 c-12 -5 -25 -13 -28 -19 -9 -13 57 -56 110 -71 75 -22
111 24 59 75 -19 20 -34 25 -72 24 -26 0 -58 -4 -69 -9z"/>
<path d="M3637 829 c-17 -10 -16 -11 3 -27 19 -16 20 -30 22 -230 l3 -212 28
25 c21 21 27 35 28 73 2 75 12 105 40 121 22 12 29 12 55 0 28 -14 29 -16 34
-108 6 -112 17 -126 77 -97 34 16 36 19 18 29 -31 17 -35 28 -34 103 1 39 -4
80 -10 92 -21 40 -87 41 -142 1 -15 -10 -30 -19 -33 -19 -3 0 -6 51 -6 114 0
63 -3 121 -6 130 -7 18 -50 21 -77 5z"/>
<path d="M4063 803 c-15 -10 -23 -26 -23 -45 l0 -29 30 21 c19 14 30 30 30 46
0 28 -6 29 -37 7z"/>
<path d="M166 717 c-18 -13 -18 -14 4 -20 23 -6 23 -6 19 -169 l-4 -163 32 -3
c18 -2 44 3 59 11 l27 14 -27 7 c-25 6 -26 9 -26 71 l0 65 101 0 102 0 -5 -72
c-3 -40 -3 -79 -1 -85 7 -18 46 -16 89 5 l37 17 -29 5 c-28 5 -29 7 -32 73 -2
38 2 74 7 81 6 7 7 16 3 20 -4 4 -7 40 -7 79 0 70 -1 72 -26 75 -14 2 -38 -3
-55 -9 -27 -12 -28 -13 -6 -16 20 -4 22 -10 22 -75 l0 -70 -31 6 c-17 3 -63 6
-101 6 l-70 0 4 78 3 77 -35 3 c-19 2 -44 -3 -54 -11z"/>
<path d="M1400 706 c-27 -15 -76 -76 -61 -76 14 0 94 63 99 78 5 15 -6 15 -38
-2z"/>
<path d="M1679 624 c-56 -17 -99 -55 -99 -87 0 -32 14 -42 79 -56 61 -13 81
-25 81 -51 0 -32 -47 -39 -94 -15 -26 14 -31 14 -53 0 -54 -36 12 -64 93 -40
58 17 114 63 114 93 0 29 -37 52 -83 52 -40 0 -92 39 -84 63 5 16 85 21 102 7
10 -9 20 -7 39 5 30 20 33 30 10 39 -23 9 -54 6 -105 -10z"/>
<path d="M759 620 c-155 -27 -206 -210 -69 -251 21 -6 54 -9 73 -5 47 9 114
59 134 100 41 88 -35 174 -138 156z m48 -52 c50 -46 50 -143 1 -169 -51 -27
-124 18 -135 84 -15 95 67 147 134 85z"/>
<path d="M975 613 c-29 -16 -29 -16 -7 -24 21 -8 22 -14 22 -114 0 -58 2 -105
5 -105 3 0 16 7 29 15 19 13 24 27 30 87 9 99 22 117 80 111 34 -4 53 -1 73
12 26 17 26 19 8 26 -39 15 -81 9 -118 -17 -21 -14 -39 -24 -40 -22 -26 50
-38 55 -82 31z"/>
<path d="M1380 620 c-89 -16 -150 -78 -150 -152 0 -53 23 -82 79 -99 50 -15
95 -6 146 29 126 86 71 248 -75 222z m20 -35 c43 -22 60 -53 60 -107 0 -90
-71 -119 -136 -54 -26 26 -34 42 -34 70 0 45 23 93 47 99 30 8 33 7 63 -8z"/>
<path d="M1965 619 c-45 -13 -94 -59 -109 -103 -37 -107 63 -180 179 -132 41
17 47 31 9 22 -36 -9 -90 10 -114 41 -28 36 -27 106 1 134 21 21 50 22 104 5
24 -8 61 16 51 32 -8 14 -77 14 -121 1z"/>
<path d="M2272 618 c-57 -12 -131 -82 -133 -124 -3 -70 12 -98 63 -118 53 -22
81 -20 137 9 84 42 115 102 87 168 -24 59 -78 82 -154 65z m38 -33 c42 -22 60
-53 60 -104 0 -90 -73 -120 -136 -57 -26 26 -34 42 -34 70 0 45 23 93 47 99
30 8 33 7 63 -8z"/>
<path d="M2505 614 c-15 -11 -17 -17 -8 -22 9 -6 13 -66 15 -222 3 -199 4
-215 21 -218 22 -4 77 17 77 29 0 5 -6 9 -14 9 -19 0 -26 23 -25 78 2 83 9 94
67 107 133 30 204 145 138 222 -20 23 -32 28 -69 27 -27 0 -60 -10 -82 -22
-20 -12 -38 -22 -39 -22 -2 0 -7 11 -10 25 -7 29 -39 33 -71 9z m200 -47 c31
-26 42 -89 23 -127 -16 -30 -64 -45 -114 -36 l-37 7 6 65 c2 35 12 75 21 89
21 32 65 33 101 2z"/>
<path d="M2988 615 c-87 -22 -138 -76 -138 -146 0 -70 73 -120 153 -105 73 14
147 90 147 151 0 37 -29 82 -59 94 -49 18 -56 18 -103 6z m64 -52 c34 -32 43
-72 28 -118 -14 -43 -41 -59 -84 -51 -52 10 -81 48 -81 108 0 42 4 53 29 75
34 29 67 25 108 -14z"/>
<path d="M3465 618 c-76 -27 -115 -78 -115 -148 0 -61 41 -100 105 -100 44 0
115 22 115 36 0 3 -12 3 -26 0 -36 -9 -90 10 -114 41 -24 30 -27 100 -6 128
14 20 71 25 111 11 24 -8 61 16 51 32 -9 15 -80 14 -121 0z"/>
<path d="M4212 620 l-23 -10 22 -29 c20 -28 22 -37 16 -121 -5 -71 -4 -90 7
-90 26 0 44 36 51 104 8 84 36 121 82 110 16 -4 32 -11 38 -16 5 -5 12 -50 15
-100 6 -108 16 -120 74 -93 36 17 37 18 14 29 -21 10 -23 20 -28 100 -4 77 -8
90 -29 107 -31 25 -59 24 -113 -5 l-46 -24 -11 24 c-11 25 -31 29 -69 14z"/>
<path d="M4719 620 c-155 -27 -206 -210 -69 -251 21 -6 54 -9 73 -5 47 9 114
59 134 100 41 88 -35 174 -138 156z m48 -52 c50 -46 50 -143 1 -169 -55 -29
-138 30 -138 97 0 93 74 131 137 72z"/>
<path d="M4020 609 c-11 -8 -12 -12 -2 -16 8 -3 12 -35 12 -108 0 -95 2 -105
21 -115 24 -13 73 -5 90 16 9 11 8 14 -9 14 -33 0 -45 35 -39 111 7 89 2 109
-32 109 -14 0 -33 -5 -41 -11z"/>
</g>
</svg>
